<?xml version="1.0" encoding="UTF-8" standalone="no"?>
<!DOCTYPE svg PUBLIC "-//W3C//DTD SVG 1.1//EN" "http://www.w3.org/Graphics/SVG/1.1/DTD/svg11.dtd">
<svg width="100%" height="100%" viewBox="0 0 80 20" version="1.1" xmlns="http://www.w3.org/2000/svg" xmlns:xlink="http://www.w3.org/1999/xlink" xml:space="preserve" style="fill-rule:evenodd;clip-rule:evenodd;stroke-linejoin:round;stroke-miterlimit:1.41421;">
    <g transform="matrix(0.900025,0,0,0.900025,-359.731,-801.861)">
        <path d="M412.456,896.221C412.456,895.349 412.608,894.579 412.912,893.911C413.216,893.242 413.616,892.69 414.113,892.254C414.609,891.818 415.167,891.489 415.785,891.266C416.403,891.043 417.026,890.932 417.654,890.932C418.282,890.932 418.905,891.043 419.523,891.266C420.141,891.489 420.698,891.818 421.195,892.254C421.691,892.69 422.092,893.242 422.395,893.911C422.699,894.579 422.851,895.349 422.851,896.221L422.851,907.649C422.851,908.541 422.699,909.316 422.395,909.974C422.092,910.633 421.691,911.18 421.195,911.615C420.698,912.051 420.141,912.38 419.523,912.603C418.905,912.826 418.282,912.938 417.654,912.938C417.026,912.938 416.403,912.826 415.785,912.603C415.167,912.38 414.609,912.051 414.113,911.615C413.616,911.18 413.216,910.633 412.912,909.974C412.608,909.316 412.456,908.541 412.456,907.649L412.456,896.221ZM445.587,891.114L442.486,891.114L442.486,907.892C442.486,908.601 442.618,909.26 442.882,909.868C443.145,910.476 443.505,911.008 443.961,911.464C444.416,911.919 444.948,912.279 445.556,912.543C446.164,912.806 446.813,912.938 447.501,912.938C448.19,912.938 448.839,912.806 449.447,912.543C450.055,912.279 450.587,911.919 451.042,911.464C451.498,911.008 451.858,910.476 452.121,909.868C452.385,909.26 452.517,908.601 452.517,907.892L452.517,891.114L449.416,891.114L449.416,907.588C449.416,908.358 449.234,908.926 448.869,909.29C448.505,909.655 448.049,909.837 447.501,909.837C446.954,909.837 446.498,909.655 446.134,909.29C445.769,908.926 445.587,908.358 445.587,907.588L445.587,891.114ZM465.465,897.345L465.465,895.825C465.465,895.218 465.343,894.625 465.1,894.047C464.857,893.47 464.507,892.948 464.051,892.482C463.595,892.016 463.048,891.641 462.41,891.357C461.772,891.074 461.068,890.932 460.298,890.932C459.406,890.932 458.626,891.089 457.957,891.403C457.289,891.717 456.736,892.138 456.301,892.664C455.865,893.191 455.536,893.819 455.313,894.549C455.09,895.278 454.979,896.048 454.979,896.859C454.979,898.216 455.207,899.346 455.662,900.248C456.118,901.15 457.015,901.874 458.352,902.421L460.571,903.333C460.956,903.495 461.265,903.647 461.498,903.789C461.731,903.931 461.914,904.113 462.045,904.336C462.177,904.559 462.263,904.853 462.304,905.217C462.344,905.582 462.365,906.048 462.365,906.616C462.365,907.102 462.344,907.548 462.304,907.953C462.263,908.358 462.167,908.698 462.015,908.971C461.863,909.245 461.64,909.457 461.346,909.609C461.052,909.761 460.642,909.837 460.115,909.837C459.325,909.837 458.763,909.609 458.428,909.154C458.094,908.698 457.927,908.186 457.927,907.619L457.927,906.646L454.827,906.646L454.827,907.801C454.827,908.53 454.963,909.209 455.237,909.837C455.511,910.466 455.88,911.008 456.346,911.464C456.812,911.919 457.37,912.279 458.018,912.543C458.666,912.806 459.366,912.938 460.115,912.938C461.108,912.938 461.949,912.776 462.638,912.451C463.327,912.127 463.879,911.686 464.295,911.129C464.71,910.572 465.009,909.903 465.191,909.123C465.374,908.343 465.465,907.497 465.465,906.585C465.465,905.795 465.424,905.091 465.343,904.473C465.262,903.855 465.105,903.308 464.872,902.831C464.639,902.355 464.31,901.94 463.884,901.585C463.459,901.231 462.901,900.922 462.213,900.658L459.842,899.716C459.436,899.554 459.117,899.392 458.884,899.23C458.651,899.068 458.474,898.88 458.352,898.667C458.231,898.455 458.155,898.201 458.124,897.907C458.094,897.614 458.079,897.254 458.079,896.828C458.079,896.464 458.109,896.114 458.17,895.78C458.231,895.446 458.337,895.152 458.489,894.898C458.641,894.645 458.854,894.437 459.127,894.275C459.401,894.113 459.751,894.032 460.176,894.032C460.966,894.032 461.529,894.291 461.863,894.807C462.197,895.324 462.365,895.937 462.365,896.646L462.365,897.345L465.465,897.345ZM477.319,896.221C477.319,895.349 477.471,894.579 477.775,893.911C478.079,893.242 478.479,892.69 478.975,892.254C479.472,891.818 480.029,891.489 480.647,891.266C481.265,891.043 481.888,890.932 482.516,890.932C483.144,890.932 483.767,891.043 484.385,891.266C485.003,891.489 485.561,891.818 486.057,892.254C486.554,892.69 486.954,893.242 487.258,893.911C487.562,894.579 487.714,895.349 487.714,896.221L487.714,907.649C487.714,908.541 487.562,909.316 487.258,909.974C486.954,910.633 486.554,911.18 486.057,911.615C485.561,912.051 485.003,912.38 484.385,912.603C483.767,912.826 483.144,912.938 482.516,912.938C481.888,912.938 481.265,912.826 480.647,912.603C480.029,912.38 479.472,912.051 478.975,911.615C478.479,911.18 478.079,910.633 477.775,909.974C477.471,909.316 477.319,908.541 477.319,907.649L477.319,896.221ZM404.007,912.755C405.851,912.755 407.264,912.274 408.247,911.312C409.23,910.349 409.721,908.855 409.721,906.828L409.721,896.707C409.721,894.944 409.255,893.571 408.323,892.588C407.391,891.606 406.043,891.114 404.28,891.114L399.691,891.114L399.691,912.755L404.007,912.755ZM432.608,902.573L432.547,902.573L428.566,891.114L425.587,891.114L425.587,912.755L428.687,912.755L428.687,899.594L428.748,899.594L431.787,908.895L433.338,908.895L436.407,899.594L436.468,899.594L436.468,912.755L439.568,912.755L439.568,891.114L436.559,891.114L432.608,902.573ZM472.911,912.755L472.911,894.032L476.498,894.032L476.498,891.114L466.225,891.114L466.225,894.032L469.811,894.032L469.811,912.755L472.911,912.755ZM404.219,894.032C405.131,894.032 405.759,894.265 406.104,894.731C406.448,895.197 406.621,895.856 406.621,896.707L406.621,907.132C406.621,908.064 406.438,908.748 406.074,909.184C405.709,909.62 405.091,909.837 404.219,909.837L402.791,909.837L402.791,894.032L404.219,894.032ZM415.557,907.649C415.557,908.399 415.764,908.951 416.18,909.305C416.595,909.66 417.087,909.837 417.654,909.837C418.221,909.837 418.713,909.66 419.128,909.305C419.543,908.951 419.751,908.399 419.751,907.649L419.751,896.221C419.751,895.471 419.543,894.919 419.128,894.564C418.713,894.209 418.221,894.032 417.654,894.032C417.087,894.032 416.595,894.209 416.18,894.564C415.764,894.919 415.557,895.471 415.557,896.221L415.557,907.649ZM480.419,907.649C480.419,908.399 480.627,908.951 481.042,909.305C481.457,909.66 481.949,909.837 482.516,909.837C483.084,909.837 483.575,909.66 483.99,909.305C484.406,908.951 484.613,908.399 484.613,907.649L484.613,896.221C484.613,895.471 484.406,894.919 483.99,894.564C483.575,894.209 483.084,894.032 482.516,894.032C481.949,894.032 481.457,894.209 481.042,894.564C480.627,894.919 480.419,895.471 480.419,896.221L480.419,907.649Z" style="fill:white;"/>
    </g>
</svg>
